# xmcd
#
# Track frame offsets: 
#        150
#        13201
#        24602
#        36978
#        53704
#        67805
#        80706
#        92932
#        105983
#        120833
#        135534
#        146410
#        158336
#        172587
#        186613
#        198239
#        212790
#        223966
#        237242
#        249318
#        262669
#        275495
#        288996
#
# Disc length: 4037 seconds
#
# Revision: 0
# Processed by: cddbd v1.5.2PL0 Copyright (c) Steve Scherf et al.
# Submitted via: ExactAudioCopy v1.1
#
DISCID=3f0fc317
DTITLE=B.B. King - The Classic Years - B.B. King
DYEAR=2015
DGENRE=Blues
TTITLE0=Every Day I Have The Blues
TTITLE1=B.B. Blues
TTITLE2=The Woman I Love
TTITLE3=The Other Night Blues
TTITLE4=Three O'clock Blues
TTITLE5=Ten Long Years
TTITLE6=You Know I Go For You
TTITLE7=Mistreated Woman
TTITLE8=Sweet Little Angel
TTITLE9=Why Did You Leave Me
TTITLE10=Fine Looking Woman
TTITLE11=Early In The Morning
TTITLE12=Blind Love
TTITLE13=You Upset Me Baby
TTITLE14=She's Dynamite
TTITLE15=Whole Lotta' Love
TTITLE16=Days Of Old
TTITLE17=Someday Somewhere
TTITLE18=Dark Is The Night (Part I)
TTITLE19=Please Love Me
TTITLE20=Highway Bound
TTITLE21=Troubles,Troubles,Troubles
TTITLE22=Crying Won't Help You
EXTD=
EXTT0=
EXTT1=
EXTT2=
EXTT3=
EXTT4=
EXTT5=
EXTT6=
EXTT7=
EXTT8=
EXTT9=
EXTT10=
EXTT11=
EXTT12=
EXTT13=
EXTT14=
EXTT15=
EXTT16=
EXTT17=
EXTT18=
EXTT19=
EXTT20=
EXTT21=
EXTT22=
PLAYORDER=
